<?xml version="1.0" encoding="UTF-8" standalone="no"?><!DOCTYPE svg PUBLIC "-//W3C//DTD SVG 1.1//EN" "http://www.w3.org/Graphics/SVG/1.1/DTD/svg11.dtd"><svg width="100%" height="100%" viewBox="0 0 500 100" version="1.1" xmlns="http://www.w3.org/2000/svg" xmlns:xlink="http://www.w3.org/1999/xlink" xml:space="preserve" style="fill-rule:evenodd;clip-rule:evenodd;stroke-linecap:round;stroke-linejoin:round;"><g><path d="M143.897,0c18.316,0 33.186,14.87 33.186,33.186c0,18.316 -14.87,33.187 -33.186,33.187c-18.316,0 -33.187,-14.871 -33.187,-33.187c0,-18.316 14.871,-33.186 33.187,-33.186Zm0,8.296c13.737,0 24.89,11.153 24.89,24.89c0,13.737 -11.153,24.89 -24.89,24.89c-13.737,0 -24.89,-11.153 -24.89,-24.89c0,-13.737 11.153,-24.89 24.89,-24.89Z" style="fill:#03a9f4;"/><path d="M85.821,0c18.316,0 33.186,14.87 33.186,33.186c0,18.316 -14.87,33.187 -33.186,33.187c-18.316,0 -33.187,-14.871 -33.187,-33.187c0,-18.316 14.871,-33.186 33.187,-33.186Zm0,8.296c13.737,0 24.89,11.153 24.89,24.89c0,13.737 -11.153,24.89 -24.89,24.89c-13.737,0 -24.89,-11.153 -24.89,-24.89c0,-13.737 11.153,-24.89 24.89,-24.89Z" style="fill:#03a9f4;"/><path d="M201.973,0c18.316,0 33.186,14.87 33.186,33.186c0,18.316 -14.87,33.187 -33.186,33.187c-18.316,0 -33.187,-14.871 -33.187,-33.187c0,-18.316 14.871,-33.186 33.187,-33.186Zm0,8.296c13.737,0 24.89,11.153 24.89,24.89c0,13.737 -11.153,24.89 -24.89,24.89c-13.737,0 -24.89,-11.153 -24.89,-24.89c0,-13.737 11.153,-24.89 24.89,-24.89Z" style="fill:#03a9f4;"/><path d="M235.159,66.372c0,18.316 -14.871,33.187 -33.187,33.187c-18.315,0 -33.186,-14.871 -33.186,-33.187l8.297,0c0,13.738 11.152,24.89 24.889,24.89c13.738,0 24.89,-11.152 24.89,-24.89l8.297,0Z" style="fill:#03a9f4;"/><rect x="226.863" y="-0.002" width="8.296" height="66.457" style="fill:#03a9f4;"/><path d="M42.315,66.373l-10.462,0l-31.853,-66.373l9.203,0l27.881,58.097l19.469,-40.566l7.62,3.297l-21.858,45.545Z" style="fill:#03a9f4;"/><path id="_0_2" d="M415.901,15.878l68.209,68.209" style="fill:none;stroke:#4fc3f7;stroke-width:2.41px;stroke-dasharray:5.78,5.78,0,0;stroke-dashoffset:0.72;"/><path id="_0_1" d="M417.35,15.878l0,68.209" style="fill:none;stroke:#4fc3f7;stroke-width:2.41px;stroke-dasharray:5.78,5.78,0,0;stroke-dashoffset:0.96;"/><circle cx="417.35" cy="17.327" r="16.327" style="fill:#fff;stroke:#03a9f4;stroke-width:2px;stroke-miterlimit:1.41421;"/><path d="M415.901,10.194Z" style="fill:none;stroke:#000;stroke-width:1px;stroke-miterlimit:1.41421;stroke-dasharray:1,2,0,0;"/><circle cx="417.35" cy="82.637" r="16.327" style="fill:#fff;stroke:#03a9f4;stroke-width:2px;stroke-miterlimit:1.41421;"/><path d="M415.901,78.403Z" style="fill:none;stroke:#000;stroke-width:1px;stroke-miterlimit:1.41421;stroke-dasharray:1,2,0,0;"/><circle cx="482.66" cy="82.637" r="16.327" style="fill:#fff;stroke:#03a9f4;stroke-width:2px;stroke-miterlimit:1.41421;"/><path d="M484.11,78.403Z" style="fill:none;stroke:#000;stroke-width:1px;stroke-miterlimit:1.41421;stroke-dasharray:1,2,0,0;"/></g></svg>