<?xml version="1.0" encoding="UTF-8" standalone="no"?>
<!DOCTYPE svg PUBLIC "-//W3C//DTD SVG 1.1//EN" "http://www.w3.org/Graphics/SVG/1.1/DTD/svg11.dtd">
<svg width="100%" height="100%" viewBox="0 0 245 122" version="1.1" xmlns="http://www.w3.org/2000/svg" xmlns:xlink="http://www.w3.org/1999/xlink" xml:space="preserve" xmlns:serif="http://www.serif.com/" style="fill-rule:evenodd;clip-rule:evenodd;stroke-linejoin:round;stroke-miterlimit:1.41421;">
    <g transform="matrix(1,0,0,1,-277.522,-139.08)">
        <g transform="matrix(0.922968,0,0,0.922968,-55.8826,62.2977)">
            <path d="M517.864,83.191C539.693,83.191 557.416,100.913 557.416,122.742C557.416,144.571 539.693,162.294 517.864,162.294C496.035,162.294 478.312,144.571 478.312,122.742C478.312,100.913 496.035,83.191 517.864,83.191ZM517.864,93.078C534.236,93.078 547.528,106.37 547.528,122.742C547.528,139.114 534.236,152.406 517.864,152.406C501.492,152.406 488.2,139.114 488.2,122.742C488.2,106.37 501.492,93.078 517.864,93.078Z" style="fill:rgb(3,169,244);"/>
        </g>
        <g transform="matrix(0.922968,0,0,0.922968,-119.766,62.2977)">
            <path d="M517.864,83.191C539.693,83.191 557.416,100.913 557.416,122.742C557.416,144.571 539.693,162.294 517.864,162.294C496.035,162.294 478.312,144.571 478.312,122.742C478.312,100.913 496.035,83.191 517.864,83.191ZM517.864,93.078C534.236,93.078 547.528,106.37 547.528,122.742C547.528,139.114 534.236,152.406 517.864,152.406C501.492,152.406 488.2,139.114 488.2,122.742C488.2,106.37 501.492,93.078 517.864,93.078Z" style="fill:rgb(3,169,244);"/>
        </g>
        <g transform="matrix(0.922968,0,0,0.922968,8.0011,62.2977)">
            <path d="M517.864,83.191C539.693,83.191 557.416,100.913 557.416,122.742C557.416,144.571 539.693,162.294 517.864,162.294C496.035,162.294 478.312,144.571 478.312,122.742C478.312,100.913 496.035,83.191 517.864,83.191ZM517.864,93.078C534.236,93.078 547.528,106.37 547.528,122.742C547.528,139.114 534.236,152.406 517.864,152.406C501.492,152.406 488.2,139.114 488.2,122.742C488.2,106.37 501.492,93.078 517.864,93.078Z" style="fill:rgb(3,169,244);"/>
        </g>
        <g transform="matrix(0.608416,0,0,0.608416,94.5712,88.4654)">
            <path d="M703.312,223.448C703.312,256.563 676.427,283.448 643.312,283.448C610.198,283.448 583.312,256.563 583.312,223.448L598.312,223.448C598.312,248.285 618.476,268.448 643.312,268.448C668.149,268.448 688.312,248.285 688.312,223.448L703.312,223.448Z" style="fill:rgb(3,169,244);"/>
        </g>
        <g transform="matrix(0.609382,0,0,1.98784,93.8922,-219.642)">
            <rect x="688.336" y="198.822" width="14.976" height="24.626" style="fill:rgb(3,169,244);"/>
        </g>
        <g transform="matrix(0.608416,0,0,0.608416,94.5712,88.4654)">
            <path d="M363.597,203.191L344.376,203.191L300.7,83.191L316.663,83.191L353.987,185.738L376.253,124.563L392.216,124.563L363.597,203.191Z" style="fill:rgb(3,169,244);"/>
        </g>
    </g>
</svg>
